<svg xmlns="http://www.w3.org/2000/svg" viewBox="0 0 626 440" role="img" aria-label="World map (dot matrix)">
  <!-- Dot-matrix world map, generated from img/world-map-mini-dots.png by tools-side gen_dotmap.py. Decorative backdrop for the "Title picks by continent" card; chalk dots, opacity set in CSS. -->
  <style>circle{r:2.2px}</style><g fill="#f6f3ea"><circle cx="241" cy="45"/><circle cx="248" cy="45"/><circle cx="171" cy="52"/><circle cx="178" cy="52"/><circle cx="185" cy="52"/><circle cx="192" cy="52"/><circle cx="234" cy="52"/><circle cx="241" cy="52"/><circle cx="248" cy="52"/><circle cx="255" cy="52"/><circle cx="171" cy="59"/><circle cx="178" cy="59"/><circle cx="185" cy="59"/><circle cx="192" cy="59"/><circle cx="234" cy="59"/><circle cx="241" cy="59"/><circle cx="248" cy="59"/><circle cx="157" cy="66"/><circle cx="164" cy="66"/><circle cx="171" cy="66"/><circle cx="178" cy="66"/><circle cx="185" cy="66"/><circle cx="192" cy="66"/><circle cx="199" cy="66"/><circle cx="206" cy="66"/><circle cx="213" cy="66"/><circle cx="220" cy="66"/><circle cx="227" cy="66"/><circle cx="234" cy="66"/><circle cx="241" cy="66"/><circle cx="248" cy="66"/><circle cx="255" cy="66"/><circle cx="269" cy="66"/><circle cx="150" cy="73"/><circle cx="171" cy="73"/><circle cx="178" cy="73"/><circle cx="185" cy="73"/><circle cx="192" cy="73"/><circle cx="199" cy="73"/><circle cx="206" cy="73"/><circle cx="213" cy="73"/><circle cx="220" cy="73"/><circle cx="227" cy="73"/><circle cx="234" cy="73"/><circle cx="241" cy="73"/><circle cx="248" cy="73"/><circle cx="255" cy="73"/><circle cx="262" cy="73"/><circle cx="269" cy="73"/><circle cx="381" cy="73"/><circle cx="395" cy="73"/><circle cx="444" cy="73"/><circle cx="150" cy="80"/><circle cx="157" cy="80"/><circle cx="171" cy="80"/><circle cx="178" cy="80"/><circle cx="199" cy="80"/><circle cx="213" cy="80"/><circle cx="220" cy="80"/><circle cx="227" cy="80"/><circle cx="234" cy="80"/><circle cx="241" cy="80"/><circle cx="248" cy="80"/><circle cx="255" cy="80"/><circle cx="262" cy="80"/><circle cx="332" cy="80"/><circle cx="150" cy="87"/><circle cx="157" cy="87"/><circle cx="164" cy="87"/><circle cx="171" cy="87"/><circle cx="178" cy="87"/><circle cx="192" cy="87"/><circle cx="199" cy="87"/><circle cx="206" cy="87"/><circle cx="213" cy="87"/><circle cx="220" cy="87"/><circle cx="227" cy="87"/><circle cx="234" cy="87"/><circle cx="241" cy="87"/><circle cx="248" cy="87"/><circle cx="255" cy="87"/><circle cx="262" cy="87"/><circle cx="318" cy="87"/><circle cx="325" cy="87"/><circle cx="332" cy="87"/><circle cx="444" cy="87"/><circle cx="451" cy="87"/><circle cx="136" cy="94"/><circle cx="143" cy="94"/><circle cx="150" cy="94"/><circle cx="164" cy="94"/><circle cx="171" cy="94"/><circle cx="192" cy="94"/><circle cx="199" cy="94"/><circle cx="206" cy="94"/><circle cx="213" cy="94"/><circle cx="220" cy="94"/><circle cx="227" cy="94"/><circle cx="234" cy="94"/><circle cx="241" cy="94"/><circle cx="248" cy="94"/><circle cx="255" cy="94"/><circle cx="262" cy="94"/><circle cx="318" cy="94"/><circle cx="325" cy="94"/><circle cx="458" cy="94"/><circle cx="171" cy="101"/><circle cx="192" cy="101"/><circle cx="199" cy="101"/><circle cx="213" cy="101"/><circle cx="220" cy="101"/><circle cx="227" cy="101"/><circle cx="234" cy="101"/><circle cx="241" cy="101"/><circle cx="248" cy="101"/><circle cx="255" cy="101"/><circle cx="262" cy="101"/><circle cx="108" cy="108"/><circle cx="115" cy="108"/><circle cx="150" cy="108"/><circle cx="157" cy="108"/><circle cx="164" cy="108"/><circle cx="171" cy="108"/><circle cx="192" cy="108"/><circle cx="199" cy="108"/><circle cx="206" cy="108"/><circle cx="213" cy="108"/><circle cx="220" cy="108"/><circle cx="227" cy="108"/><circle cx="234" cy="108"/><circle cx="241" cy="108"/><circle cx="248" cy="108"/><circle cx="255" cy="108"/><circle cx="262" cy="108"/><circle cx="402" cy="108"/><circle cx="451" cy="108"/><circle cx="458" cy="108"/><circle cx="465" cy="108"/><circle cx="115" cy="115"/><circle cx="122" cy="115"/><circle cx="129" cy="115"/><circle cx="143" cy="115"/><circle cx="150" cy="115"/><circle cx="157" cy="115"/><circle cx="164" cy="115"/><circle cx="171" cy="115"/><circle cx="213" cy="115"/><circle cx="220" cy="115"/><circle cx="227" cy="115"/><circle cx="234" cy="115"/><circle cx="241" cy="115"/><circle cx="248" cy="115"/><circle cx="255" cy="115"/><circle cx="262" cy="115"/><circle cx="388" cy="115"/><circle cx="437" cy="115"/><circle cx="444" cy="115"/><circle cx="451" cy="115"/><circle cx="458" cy="115"/><circle cx="465" cy="115"/><circle cx="514" cy="115"/><circle cx="521" cy="115"/><circle cx="108" cy="122"/><circle cx="115" cy="122"/><circle cx="213" cy="122"/><circle cx="220" cy="122"/><circle cx="234" cy="122"/><circle cx="241" cy="122"/><circle cx="255" cy="122"/><circle cx="262" cy="122"/><circle cx="437" cy="122"/><circle cx="444" cy="122"/><circle cx="458" cy="122"/><circle cx="101" cy="129"/><circle cx="108" cy="129"/><circle cx="115" cy="129"/><circle cx="122" cy="129"/><circle cx="129" cy="129"/><circle cx="143" cy="129"/><circle cx="150" cy="129"/><circle cx="157" cy="129"/><circle cx="164" cy="129"/><circle cx="171" cy="129"/><circle cx="213" cy="129"/><circle cx="220" cy="129"/><circle cx="227" cy="129"/><circle cx="234" cy="129"/><circle cx="241" cy="129"/><circle cx="248" cy="129"/><circle cx="255" cy="129"/><circle cx="381" cy="129"/><circle cx="402" cy="129"/><circle cx="423" cy="129"/><circle cx="430" cy="129"/><circle cx="437" cy="129"/><circle cx="444" cy="129"/><circle cx="451" cy="129"/><circle cx="458" cy="129"/><circle cx="465" cy="129"/><circle cx="472" cy="129"/><circle cx="479" cy="129"/><circle cx="514" cy="129"/><circle cx="521" cy="129"/><circle cx="108" cy="136"/><circle cx="115" cy="136"/><circle cx="122" cy="136"/><circle cx="129" cy="136"/><circle cx="136" cy="136"/><circle cx="150" cy="136"/><circle cx="157" cy="136"/><circle cx="164" cy="136"/><circle cx="171" cy="136"/><circle cx="178" cy="136"/><circle cx="213" cy="136"/><circle cx="220" cy="136"/><circle cx="227" cy="136"/><circle cx="234" cy="136"/><circle cx="241" cy="136"/><circle cx="248" cy="136"/><circle cx="255" cy="136"/><circle cx="262" cy="136"/><circle cx="339" cy="136"/><circle cx="381" cy="136"/><circle cx="402" cy="136"/><circle cx="416" cy="136"/><circle cx="423" cy="136"/><circle cx="430" cy="136"/><circle cx="437" cy="136"/><circle cx="444" cy="136"/><circle cx="451" cy="136"/><circle cx="458" cy="136"/><circle cx="465" cy="136"/><circle cx="472" cy="136"/><circle cx="479" cy="136"/><circle cx="486" cy="136"/><circle cx="493" cy="136"/><circle cx="500" cy="136"/><circle cx="507" cy="136"/><circle cx="514" cy="136"/><circle cx="521" cy="136"/><circle cx="528" cy="136"/><circle cx="45" cy="143"/><circle cx="52" cy="143"/><circle cx="66" cy="143"/><circle cx="94" cy="143"/><circle cx="129" cy="143"/><circle cx="136" cy="143"/><circle cx="150" cy="143"/><circle cx="171" cy="143"/><circle cx="178" cy="143"/><circle cx="213" cy="143"/><circle cx="220" cy="143"/><circle cx="227" cy="143"/><circle cx="234" cy="143"/><circle cx="241" cy="143"/><circle cx="248" cy="143"/><circle cx="255" cy="143"/><circle cx="332" cy="143"/><circle cx="339" cy="143"/><circle cx="416" cy="143"/><circle cx="423" cy="143"/><circle cx="437" cy="143"/><circle cx="444" cy="143"/><circle cx="458" cy="143"/><circle cx="465" cy="143"/><circle cx="479" cy="143"/><circle cx="486" cy="143"/><circle cx="500" cy="143"/><circle cx="507" cy="143"/><circle cx="521" cy="143"/><circle cx="528" cy="143"/><circle cx="563" cy="143"/><circle cx="45" cy="150"/><circle cx="52" cy="150"/><circle cx="59" cy="150"/><circle cx="66" cy="150"/><circle cx="73" cy="150"/><circle cx="80" cy="150"/><circle cx="87" cy="150"/><circle cx="94" cy="150"/><circle cx="101" cy="150"/><circle cx="108" cy="150"/><circle cx="115" cy="150"/><circle cx="122" cy="150"/><circle cx="143" cy="150"/><circle cx="150" cy="150"/><circle cx="164" cy="150"/><circle cx="171" cy="150"/><circle cx="178" cy="150"/><circle cx="185" cy="150"/><circle cx="192" cy="150"/><circle cx="220" cy="150"/><circle cx="227" cy="150"/><circle cx="234" cy="150"/><circle cx="241" cy="150"/><circle cx="332" cy="150"/><circle cx="339" cy="150"/><circle cx="346" cy="150"/><circle cx="353" cy="150"/><circle cx="381" cy="150"/><circle cx="388" cy="150"/><circle cx="395" cy="150"/><circle cx="402" cy="150"/><circle cx="416" cy="150"/><circle cx="423" cy="150"/><circle cx="430" cy="150"/><circle cx="437" cy="150"/><circle cx="444" cy="150"/><circle cx="451" cy="150"/><circle cx="458" cy="150"/><circle cx="465" cy="150"/><circle cx="472" cy="150"/><circle cx="479" cy="150"/><circle cx="486" cy="150"/><circle cx="493" cy="150"/><circle cx="500" cy="150"/><circle cx="507" cy="150"/><circle cx="521" cy="150"/><circle cx="528" cy="150"/><circle cx="535" cy="150"/><circle cx="542" cy="150"/><circle cx="549" cy="150"/><circle cx="556" cy="150"/><circle cx="563" cy="150"/><circle cx="570" cy="150"/><circle cx="577" cy="150"/><circle cx="45" cy="157"/><circle cx="52" cy="157"/><circle cx="59" cy="157"/><circle cx="66" cy="157"/><circle cx="73" cy="157"/><circle cx="80" cy="157"/><circle cx="87" cy="157"/><circle cx="94" cy="157"/><circle cx="101" cy="157"/><circle cx="108" cy="157"/><circle cx="115" cy="157"/><circle cx="122" cy="157"/><circle cx="129" cy="157"/><circle cx="136" cy="157"/><circle cx="143" cy="157"/><circle cx="150" cy="157"/><circle cx="157" cy="157"/><circle cx="164" cy="157"/><circle cx="178" cy="157"/><circle cx="185" cy="157"/><circle cx="192" cy="157"/><circle cx="199" cy="157"/><circle cx="213" cy="157"/><circle cx="220" cy="157"/><circle cx="227" cy="157"/><circle cx="234" cy="157"/><circle cx="262" cy="157"/><circle cx="318" cy="157"/><circle cx="325" cy="157"/><circle cx="332" cy="157"/><circle cx="339" cy="157"/><circle cx="346" cy="157"/><circle cx="360" cy="157"/><circle cx="367" cy="157"/><circle cx="374" cy="157"/><circle cx="381" cy="157"/><circle cx="388" cy="157"/><circle cx="395" cy="157"/><circle cx="402" cy="157"/><circle cx="409" cy="157"/><circle cx="416" cy="157"/><circle cx="423" cy="157"/><circle cx="430" cy="157"/><circle cx="437" cy="157"/><circle cx="444" cy="157"/><circle cx="451" cy="157"/><circle cx="458" cy="157"/><circle cx="465" cy="157"/><circle cx="472" cy="157"/><circle cx="479" cy="157"/><circle cx="486" cy="157"/><circle cx="493" cy="157"/><circle cx="500" cy="157"/><circle cx="507" cy="157"/><circle cx="514" cy="157"/><circle cx="521" cy="157"/><circle cx="528" cy="157"/><circle cx="535" cy="157"/><circle cx="542" cy="157"/><circle cx="549" cy="157"/><circle cx="556" cy="157"/><circle cx="563" cy="157"/><circle cx="570" cy="157"/><circle cx="577" cy="157"/><circle cx="584" cy="157"/><circle cx="45" cy="164"/><circle cx="52" cy="164"/><circle cx="66" cy="164"/><circle cx="73" cy="164"/><circle cx="87" cy="164"/><circle cx="94" cy="164"/><circle cx="101" cy="164"/><circle cx="108" cy="164"/><circle cx="115" cy="164"/><circle cx="129" cy="164"/><circle cx="136" cy="164"/><circle cx="150" cy="164"/><circle cx="157" cy="164"/><circle cx="220" cy="164"/><circle cx="269" cy="164"/><circle cx="318" cy="164"/><circle cx="339" cy="164"/><circle cx="353" cy="164"/><circle cx="360" cy="164"/><circle cx="374" cy="164"/><circle cx="381" cy="164"/><circle cx="395" cy="164"/><circle cx="402" cy="164"/><circle cx="416" cy="164"/><circle cx="423" cy="164"/><circle cx="430" cy="164"/><circle cx="437" cy="164"/><circle cx="444" cy="164"/><circle cx="458" cy="164"/><circle cx="465" cy="164"/><circle cx="479" cy="164"/><circle cx="486" cy="164"/><circle cx="500" cy="164"/><circle cx="507" cy="164"/><circle cx="521" cy="164"/><circle cx="528" cy="164"/><circle cx="542" cy="164"/><circle cx="549" cy="164"/><circle cx="556" cy="164"/><circle cx="563" cy="164"/><circle cx="570" cy="164"/><circle cx="584" cy="164"/><circle cx="45" cy="171"/><circle cx="52" cy="171"/><circle cx="59" cy="171"/><circle cx="66" cy="171"/><circle cx="73" cy="171"/><circle cx="80" cy="171"/><circle cx="87" cy="171"/><circle cx="94" cy="171"/><circle cx="101" cy="171"/><circle cx="108" cy="171"/><circle cx="115" cy="171"/><circle cx="122" cy="171"/><circle cx="129" cy="171"/><circle cx="136" cy="171"/><circle cx="143" cy="171"/><circle cx="150" cy="171"/><circle cx="192" cy="171"/><circle cx="220" cy="171"/><circle cx="227" cy="171"/><circle cx="311" cy="171"/><circle cx="318" cy="171"/><circle cx="332" cy="171"/><circle cx="339" cy="171"/><circle cx="346" cy="171"/><circle cx="353" cy="171"/><circle cx="360" cy="171"/><circle cx="367" cy="171"/><circle cx="374" cy="171"/><circle cx="381" cy="171"/><circle cx="388" cy="171"/><circle cx="395" cy="171"/><circle cx="402" cy="171"/><circle cx="409" cy="171"/><circle cx="416" cy="171"/><circle cx="423" cy="171"/><circle cx="430" cy="171"/><circle cx="437" cy="171"/><circle cx="444" cy="171"/><circle cx="451" cy="171"/><circle cx="458" cy="171"/><circle cx="465" cy="171"/><circle cx="472" cy="171"/><circle cx="479" cy="171"/><circle cx="486" cy="171"/><circle cx="493" cy="171"/><circle cx="500" cy="171"/><circle cx="507" cy="171"/><circle cx="514" cy="171"/><circle cx="521" cy="171"/><circle cx="528" cy="171"/><circle cx="535" cy="171"/><circle cx="542" cy="171"/><circle cx="549" cy="171"/><circle cx="556" cy="171"/><circle cx="563" cy="171"/><circle cx="570" cy="171"/><circle cx="38" cy="178"/><circle cx="45" cy="178"/><circle cx="52" cy="178"/><circle cx="59" cy="178"/><circle cx="66" cy="178"/><circle cx="73" cy="178"/><circle cx="80" cy="178"/><circle cx="87" cy="178"/><circle cx="94" cy="178"/><circle cx="101" cy="178"/><circle cx="108" cy="178"/><circle cx="115" cy="178"/><circle cx="122" cy="178"/><circle cx="129" cy="178"/><circle cx="136" cy="178"/><circle cx="143" cy="178"/><circle cx="150" cy="178"/><circle cx="178" cy="178"/><circle cx="185" cy="178"/><circle cx="227" cy="178"/><circle cx="304" cy="178"/><circle cx="311" cy="178"/><circle cx="318" cy="178"/><circle cx="332" cy="178"/><circle cx="346" cy="178"/><circle cx="353" cy="178"/><circle cx="360" cy="178"/><circle cx="367" cy="178"/><circle cx="374" cy="178"/><circle cx="381" cy="178"/><circle cx="388" cy="178"/><circle cx="395" cy="178"/><circle cx="402" cy="178"/><circle cx="409" cy="178"/><circle cx="416" cy="178"/><circle cx="423" cy="178"/><circle cx="430" cy="178"/><circle cx="437" cy="178"/><circle cx="444" cy="178"/><circle cx="451" cy="178"/><circle cx="458" cy="178"/><circle cx="465" cy="178"/><circle cx="472" cy="178"/><circle cx="479" cy="178"/><circle cx="486" cy="178"/><circle cx="493" cy="178"/><circle cx="500" cy="178"/><circle cx="507" cy="178"/><circle cx="514" cy="178"/><circle cx="521" cy="178"/><circle cx="528" cy="178"/><circle cx="535" cy="178"/><circle cx="549" cy="178"/><circle cx="556" cy="178"/><circle cx="52" cy="185"/><circle cx="87" cy="185"/><circle cx="94" cy="185"/><circle cx="101" cy="185"/><circle cx="108" cy="185"/><circle cx="115" cy="185"/><circle cx="122" cy="185"/><circle cx="129" cy="185"/><circle cx="136" cy="185"/><circle cx="178" cy="185"/><circle cx="192" cy="185"/><circle cx="199" cy="185"/><circle cx="290" cy="185"/><circle cx="311" cy="185"/><circle cx="318" cy="185"/><circle cx="339" cy="185"/><circle cx="353" cy="185"/><circle cx="360" cy="185"/><circle cx="374" cy="185"/><circle cx="381" cy="185"/><circle cx="395" cy="185"/><circle cx="402" cy="185"/><circle cx="416" cy="185"/><circle cx="423" cy="185"/><circle cx="430" cy="185"/><circle cx="437" cy="185"/><circle cx="444" cy="185"/><circle cx="451" cy="185"/><circle cx="458" cy="185"/><circle cx="465" cy="185"/><circle cx="479" cy="185"/><circle cx="486" cy="185"/><circle cx="500" cy="185"/><circle cx="507" cy="185"/><circle cx="52" cy="192"/><circle cx="94" cy="192"/><circle cx="101" cy="192"/><circle cx="108" cy="192"/><circle cx="115" cy="192"/><circle cx="122" cy="192"/><circle cx="129" cy="192"/><circle cx="136" cy="192"/><circle cx="143" cy="192"/><circle cx="150" cy="192"/><circle cx="157" cy="192"/><circle cx="178" cy="192"/><circle cx="185" cy="192"/><circle cx="192" cy="192"/><circle cx="199" cy="192"/><circle cx="290" cy="192"/><circle cx="297" cy="192"/><circle cx="318" cy="192"/><circle cx="332" cy="192"/><circle cx="339" cy="192"/><circle cx="346" cy="192"/><circle cx="353" cy="192"/><circle cx="360" cy="192"/><circle cx="367" cy="192"/><circle cx="374" cy="192"/><circle cx="381" cy="192"/><circle cx="388" cy="192"/><circle cx="395" cy="192"/><circle cx="402" cy="192"/><circle cx="409" cy="192"/><circle cx="416" cy="192"/><circle cx="423" cy="192"/><circle cx="430" cy="192"/><circle cx="437" cy="192"/><circle cx="444" cy="192"/><circle cx="451" cy="192"/><circle cx="458" cy="192"/><circle cx="465" cy="192"/><circle cx="472" cy="192"/><circle cx="479" cy="192"/><circle cx="486" cy="192"/><circle cx="493" cy="192"/><circle cx="500" cy="192"/><circle cx="507" cy="192"/><circle cx="542" cy="192"/><circle cx="94" cy="199"/><circle cx="101" cy="199"/><circle cx="108" cy="199"/><circle cx="115" cy="199"/><circle cx="122" cy="199"/><circle cx="129" cy="199"/><circle cx="136" cy="199"/><circle cx="143" cy="199"/><circle cx="150" cy="199"/><circle cx="157" cy="199"/><circle cx="164" cy="199"/><circle cx="171" cy="199"/><circle cx="178" cy="199"/><circle cx="185" cy="199"/><circle cx="192" cy="199"/><circle cx="199" cy="199"/><circle cx="206" cy="199"/><circle cx="283" cy="199"/><circle cx="290" cy="199"/><circle cx="311" cy="199"/><circle cx="318" cy="199"/><circle cx="325" cy="199"/><circle cx="332" cy="199"/><circle cx="339" cy="199"/><circle cx="346" cy="199"/><circle cx="353" cy="199"/><circle cx="360" cy="199"/><circle cx="367" cy="199"/><circle cx="374" cy="199"/><circle cx="381" cy="199"/><circle cx="388" cy="199"/><circle cx="395" cy="199"/><circle cx="402" cy="199"/><circle cx="409" cy="199"/><circle cx="416" cy="199"/><circle cx="423" cy="199"/><circle cx="430" cy="199"/><circle cx="437" cy="199"/><circle cx="444" cy="199"/><circle cx="451" cy="199"/><circle cx="458" cy="199"/><circle cx="465" cy="199"/><circle cx="472" cy="199"/><circle cx="479" cy="199"/><circle cx="486" cy="199"/><circle cx="493" cy="199"/><circle cx="500" cy="199"/><circle cx="507" cy="199"/><circle cx="514" cy="199"/><circle cx="542" cy="199"/><circle cx="108" cy="206"/><circle cx="115" cy="206"/><circle cx="129" cy="206"/><circle cx="136" cy="206"/><circle cx="150" cy="206"/><circle cx="157" cy="206"/><circle cx="171" cy="206"/><circle cx="178" cy="206"/><circle cx="192" cy="206"/><circle cx="199" cy="206"/><circle cx="290" cy="206"/><circle cx="311" cy="206"/><circle cx="318" cy="206"/><circle cx="332" cy="206"/><circle cx="339" cy="206"/><circle cx="353" cy="206"/><circle cx="360" cy="206"/><circle cx="374" cy="206"/><circle cx="381" cy="206"/><circle cx="395" cy="206"/><circle cx="402" cy="206"/><circle cx="416" cy="206"/><circle cx="423" cy="206"/><circle cx="430" cy="206"/><circle cx="437" cy="206"/><circle cx="444" cy="206"/><circle cx="451" cy="206"/><circle cx="458" cy="206"/><circle cx="465" cy="206"/><circle cx="479" cy="206"/><circle cx="486" cy="206"/><circle cx="500" cy="206"/><circle cx="507" cy="206"/><circle cx="101" cy="213"/><circle cx="108" cy="213"/><circle cx="115" cy="213"/><circle cx="122" cy="213"/><circle cx="129" cy="213"/><circle cx="136" cy="213"/><circle cx="143" cy="213"/><circle cx="150" cy="213"/><circle cx="157" cy="213"/><circle cx="164" cy="213"/><circle cx="171" cy="213"/><circle cx="178" cy="213"/><circle cx="185" cy="213"/><circle cx="192" cy="213"/><circle cx="213" cy="213"/><circle cx="290" cy="213"/><circle cx="297" cy="213"/><circle cx="304" cy="213"/><circle cx="311" cy="213"/><circle cx="318" cy="213"/><circle cx="325" cy="213"/><circle cx="332" cy="213"/><circle cx="339" cy="213"/><circle cx="346" cy="213"/><circle cx="353" cy="213"/><circle cx="360" cy="213"/><circle cx="367" cy="213"/><circle cx="374" cy="213"/><circle cx="381" cy="213"/><circle cx="388" cy="213"/><circle cx="395" cy="213"/><circle cx="402" cy="213"/><circle cx="409" cy="213"/><circle cx="416" cy="213"/><circle cx="423" cy="213"/><circle cx="430" cy="213"/><circle cx="437" cy="213"/><circle cx="444" cy="213"/><circle cx="451" cy="213"/><circle cx="458" cy="213"/><circle cx="465" cy="213"/><circle cx="472" cy="213"/><circle cx="479" cy="213"/><circle cx="486" cy="213"/><circle cx="493" cy="213"/><circle cx="500" cy="213"/><circle cx="507" cy="213"/><circle cx="108" cy="220"/><circle cx="115" cy="220"/><circle cx="122" cy="220"/><circle cx="129" cy="220"/><circle cx="136" cy="220"/><circle cx="143" cy="220"/><circle cx="150" cy="220"/><circle cx="157" cy="220"/><circle cx="164" cy="220"/><circle cx="171" cy="220"/><circle cx="178" cy="220"/><circle cx="185" cy="220"/><circle cx="192" cy="220"/><circle cx="297" cy="220"/><circle cx="304" cy="220"/><circle cx="311" cy="220"/><circle cx="318" cy="220"/><circle cx="325" cy="220"/><circle cx="332" cy="220"/><circle cx="339" cy="220"/><circle cx="346" cy="220"/><circle cx="353" cy="220"/><circle cx="360" cy="220"/><circle cx="367" cy="220"/><circle cx="374" cy="220"/><circle cx="381" cy="220"/><circle cx="388" cy="220"/><circle cx="395" cy="220"/><circle cx="402" cy="220"/><circle cx="409" cy="220"/><circle cx="416" cy="220"/><circle cx="423" cy="220"/><circle cx="430" cy="220"/><circle cx="437" cy="220"/><circle cx="444" cy="220"/><circle cx="451" cy="220"/><circle cx="458" cy="220"/><circle cx="465" cy="220"/><circle cx="472" cy="220"/><circle cx="479" cy="220"/><circle cx="486" cy="220"/><circle cx="493" cy="220"/><circle cx="500" cy="220"/><circle cx="108" cy="227"/><circle cx="115" cy="227"/><circle cx="129" cy="227"/><circle cx="136" cy="227"/><circle cx="150" cy="227"/><circle cx="157" cy="227"/><circle cx="171" cy="227"/><circle cx="178" cy="227"/><circle cx="290" cy="227"/><circle cx="297" cy="227"/><circle cx="318" cy="227"/><circle cx="332" cy="227"/><circle cx="339" cy="227"/><circle cx="353" cy="227"/><circle cx="360" cy="227"/><circle cx="374" cy="227"/><circle cx="381" cy="227"/><circle cx="395" cy="227"/><circle cx="402" cy="227"/><circle cx="416" cy="227"/><circle cx="423" cy="227"/><circle cx="437" cy="227"/><circle cx="444" cy="227"/><circle cx="458" cy="227"/><circle cx="465" cy="227"/><circle cx="479" cy="227"/><circle cx="486" cy="227"/><circle cx="108" cy="234"/><circle cx="115" cy="234"/><circle cx="122" cy="234"/><circle cx="129" cy="234"/><circle cx="136" cy="234"/><circle cx="143" cy="234"/><circle cx="150" cy="234"/><circle cx="157" cy="234"/><circle cx="164" cy="234"/><circle cx="171" cy="234"/><circle cx="178" cy="234"/><circle cx="290" cy="234"/><circle cx="297" cy="234"/><circle cx="318" cy="234"/><circle cx="332" cy="234"/><circle cx="339" cy="234"/><circle cx="346" cy="234"/><circle cx="353" cy="234"/><circle cx="360" cy="234"/><circle cx="367" cy="234"/><circle cx="374" cy="234"/><circle cx="381" cy="234"/><circle cx="388" cy="234"/><circle cx="395" cy="234"/><circle cx="402" cy="234"/><circle cx="409" cy="234"/><circle cx="416" cy="234"/><circle cx="423" cy="234"/><circle cx="430" cy="234"/><circle cx="437" cy="234"/><circle cx="444" cy="234"/><circle cx="451" cy="234"/><circle cx="458" cy="234"/><circle cx="465" cy="234"/><circle cx="472" cy="234"/><circle cx="479" cy="234"/><circle cx="493" cy="234"/><circle cx="514" cy="234"/><circle cx="115" cy="241"/><circle cx="122" cy="241"/><circle cx="129" cy="241"/><circle cx="136" cy="241"/><circle cx="143" cy="241"/><circle cx="150" cy="241"/><circle cx="157" cy="241"/><circle cx="164" cy="241"/><circle cx="171" cy="241"/><circle cx="290" cy="241"/><circle cx="297" cy="241"/><circle cx="304" cy="241"/><circle cx="311" cy="241"/><circle cx="353" cy="241"/><circle cx="360" cy="241"/><circle cx="367" cy="241"/><circle cx="374" cy="241"/><circle cx="381" cy="241"/><circle cx="388" cy="241"/><circle cx="395" cy="241"/><circle cx="402" cy="241"/><circle cx="409" cy="241"/><circle cx="416" cy="241"/><circle cx="423" cy="241"/><circle cx="430" cy="241"/><circle cx="437" cy="241"/><circle cx="444" cy="241"/><circle cx="451" cy="241"/><circle cx="458" cy="241"/><circle cx="465" cy="241"/><circle cx="472" cy="241"/><circle cx="479" cy="241"/><circle cx="500" cy="241"/><circle cx="129" cy="248"/><circle cx="136" cy="248"/><circle cx="150" cy="248"/><circle cx="290" cy="248"/><circle cx="297" cy="248"/><circle cx="311" cy="248"/><circle cx="318" cy="248"/><circle cx="332" cy="248"/><circle cx="339" cy="248"/><circle cx="353" cy="248"/><circle cx="360" cy="248"/><circle cx="374" cy="248"/><circle cx="381" cy="248"/><circle cx="395" cy="248"/><circle cx="402" cy="248"/><circle cx="416" cy="248"/><circle cx="423" cy="248"/><circle cx="437" cy="248"/><circle cx="444" cy="248"/><circle cx="458" cy="248"/><circle cx="465" cy="248"/><circle cx="479" cy="248"/><circle cx="122" cy="255"/><circle cx="129" cy="255"/><circle cx="136" cy="255"/><circle cx="143" cy="255"/><circle cx="171" cy="255"/><circle cx="276" cy="255"/><circle cx="283" cy="255"/><circle cx="290" cy="255"/><circle cx="297" cy="255"/><circle cx="304" cy="255"/><circle cx="311" cy="255"/><circle cx="318" cy="255"/><circle cx="325" cy="255"/><circle cx="332" cy="255"/><circle cx="339" cy="255"/><circle cx="346" cy="255"/><circle cx="353" cy="255"/><circle cx="360" cy="255"/><circle cx="367" cy="255"/><circle cx="374" cy="255"/><circle cx="381" cy="255"/><circle cx="395" cy="255"/><circle cx="402" cy="255"/><circle cx="409" cy="255"/><circle cx="416" cy="255"/><circle cx="423" cy="255"/><circle cx="430" cy="255"/><circle cx="437" cy="255"/><circle cx="444" cy="255"/><circle cx="451" cy="255"/><circle cx="458" cy="255"/><circle cx="465" cy="255"/><circle cx="472" cy="255"/><circle cx="479" cy="255"/><circle cx="136" cy="262"/><circle cx="143" cy="262"/><circle cx="171" cy="262"/><circle cx="178" cy="262"/><circle cx="276" cy="262"/><circle cx="283" cy="262"/><circle cx="290" cy="262"/><circle cx="297" cy="262"/><circle cx="304" cy="262"/><circle cx="311" cy="262"/><circle cx="318" cy="262"/><circle cx="325" cy="262"/><circle cx="332" cy="262"/><circle cx="339" cy="262"/><circle cx="346" cy="262"/><circle cx="360" cy="262"/><circle cx="367" cy="262"/><circle cx="374" cy="262"/><circle cx="381" cy="262"/><circle cx="402" cy="262"/><circle cx="409" cy="262"/><circle cx="416" cy="262"/><circle cx="423" cy="262"/><circle cx="430" cy="262"/><circle cx="444" cy="262"/><circle cx="451" cy="262"/><circle cx="458" cy="262"/><circle cx="465" cy="262"/><circle cx="472" cy="262"/><circle cx="150" cy="269"/><circle cx="157" cy="269"/><circle cx="276" cy="269"/><circle cx="290" cy="269"/><circle cx="297" cy="269"/><circle cx="304" cy="269"/><circle cx="311" cy="269"/><circle cx="318" cy="269"/><circle cx="332" cy="269"/><circle cx="339" cy="269"/><circle cx="374" cy="269"/><circle cx="381" cy="269"/><circle cx="416" cy="269"/><circle cx="423" cy="269"/><circle cx="150" cy="276"/><circle cx="157" cy="276"/><circle cx="164" cy="276"/><circle cx="276" cy="276"/><circle cx="283" cy="276"/><circle cx="290" cy="276"/><circle cx="297" cy="276"/><circle cx="304" cy="276"/><circle cx="311" cy="276"/><circle cx="318" cy="276"/><circle cx="325" cy="276"/><circle cx="332" cy="276"/><circle cx="339" cy="276"/><circle cx="346" cy="276"/><circle cx="353" cy="276"/><circle cx="360" cy="276"/><circle cx="416" cy="276"/><circle cx="451" cy="276"/><circle cx="458" cy="276"/><circle cx="164" cy="283"/><circle cx="171" cy="283"/><circle cx="178" cy="283"/><circle cx="185" cy="283"/><circle cx="192" cy="283"/><circle cx="199" cy="283"/><circle cx="276" cy="283"/><circle cx="283" cy="283"/><circle cx="290" cy="283"/><circle cx="297" cy="283"/><circle cx="304" cy="283"/><circle cx="311" cy="283"/><circle cx="318" cy="283"/><circle cx="325" cy="283"/><circle cx="332" cy="283"/><circle cx="339" cy="283"/><circle cx="346" cy="283"/><circle cx="353" cy="283"/><circle cx="360" cy="283"/><circle cx="416" cy="283"/><circle cx="178" cy="290"/><circle cx="192" cy="290"/><circle cx="199" cy="290"/><circle cx="213" cy="290"/><circle cx="290" cy="290"/><circle cx="311" cy="290"/><circle cx="318" cy="290"/><circle cx="332" cy="290"/><circle cx="339" cy="290"/><circle cx="353" cy="290"/><circle cx="360" cy="290"/><circle cx="367" cy="290"/><circle cx="171" cy="297"/><circle cx="178" cy="297"/><circle cx="185" cy="297"/><circle cx="192" cy="297"/><circle cx="199" cy="297"/><circle cx="206" cy="297"/><circle cx="213" cy="297"/><circle cx="220" cy="297"/><circle cx="311" cy="297"/><circle cx="318" cy="297"/><circle cx="325" cy="297"/><circle cx="332" cy="297"/><circle cx="339" cy="297"/><circle cx="346" cy="297"/><circle cx="353" cy="297"/><circle cx="360" cy="297"/><circle cx="458" cy="297"/><circle cx="465" cy="297"/><circle cx="472" cy="297"/><circle cx="479" cy="297"/><circle cx="500" cy="297"/><circle cx="171" cy="304"/><circle cx="178" cy="304"/><circle cx="185" cy="304"/><circle cx="192" cy="304"/><circle cx="199" cy="304"/><circle cx="206" cy="304"/><circle cx="213" cy="304"/><circle cx="220" cy="304"/><circle cx="227" cy="304"/><circle cx="234" cy="304"/><circle cx="318" cy="304"/><circle cx="325" cy="304"/><circle cx="332" cy="304"/><circle cx="339" cy="304"/><circle cx="346" cy="304"/><circle cx="353" cy="304"/><circle cx="458" cy="304"/><circle cx="486" cy="304"/><circle cx="507" cy="304"/><circle cx="521" cy="304"/><circle cx="528" cy="304"/><circle cx="178" cy="311"/><circle cx="185" cy="311"/><circle cx="192" cy="311"/><circle cx="199" cy="311"/><circle cx="206" cy="311"/><circle cx="213" cy="311"/><circle cx="220" cy="311"/><circle cx="227" cy="311"/><circle cx="234" cy="311"/><circle cx="241" cy="311"/><circle cx="318" cy="311"/><circle cx="325" cy="311"/><circle cx="332" cy="311"/><circle cx="339" cy="311"/><circle cx="346" cy="311"/><circle cx="353" cy="311"/><circle cx="479" cy="311"/><circle cx="521" cy="311"/><circle cx="178" cy="318"/><circle cx="185" cy="318"/><circle cx="192" cy="318"/><circle cx="199" cy="318"/><circle cx="206" cy="318"/><circle cx="213" cy="318"/><circle cx="220" cy="318"/><circle cx="227" cy="318"/><circle cx="234" cy="318"/><circle cx="318" cy="318"/><circle cx="325" cy="318"/><circle cx="332" cy="318"/><circle cx="339" cy="318"/><circle cx="346" cy="318"/><circle cx="353" cy="318"/><circle cx="500" cy="318"/><circle cx="507" cy="318"/><circle cx="521" cy="318"/><circle cx="192" cy="325"/><circle cx="199" cy="325"/><circle cx="206" cy="325"/><circle cx="213" cy="325"/><circle cx="220" cy="325"/><circle cx="227" cy="325"/><circle cx="318" cy="325"/><circle cx="332" cy="325"/><circle cx="339" cy="325"/><circle cx="346" cy="325"/><circle cx="374" cy="325"/><circle cx="500" cy="325"/><circle cx="507" cy="325"/><circle cx="521" cy="325"/><circle cx="192" cy="332"/><circle cx="199" cy="332"/><circle cx="206" cy="332"/><circle cx="213" cy="332"/><circle cx="220" cy="332"/><circle cx="318" cy="332"/><circle cx="325" cy="332"/><circle cx="332" cy="332"/><circle cx="339" cy="332"/><circle cx="346" cy="332"/><circle cx="367" cy="332"/><circle cx="479" cy="332"/><circle cx="486" cy="332"/><circle cx="493" cy="332"/><circle cx="500" cy="332"/><circle cx="507" cy="332"/><circle cx="514" cy="332"/><circle cx="521" cy="332"/><circle cx="192" cy="339"/><circle cx="199" cy="339"/><circle cx="206" cy="339"/><circle cx="213" cy="339"/><circle cx="220" cy="339"/><circle cx="318" cy="339"/><circle cx="325" cy="339"/><circle cx="332" cy="339"/><circle cx="339" cy="339"/><circle cx="479" cy="339"/><circle cx="486" cy="339"/><circle cx="493" cy="339"/><circle cx="500" cy="339"/><circle cx="507" cy="339"/><circle cx="514" cy="339"/><circle cx="521" cy="339"/><circle cx="528" cy="339"/><circle cx="192" cy="346"/><circle cx="199" cy="346"/><circle cx="213" cy="346"/><circle cx="325" cy="346"/><circle cx="332" cy="346"/><circle cx="339" cy="346"/><circle cx="479" cy="346"/><circle cx="486" cy="346"/><circle cx="493" cy="346"/><circle cx="500" cy="346"/><circle cx="507" cy="346"/><circle cx="521" cy="346"/><circle cx="528" cy="346"/><circle cx="185" cy="353"/><circle cx="192" cy="353"/><circle cx="199" cy="353"/><circle cx="206" cy="353"/><circle cx="213" cy="353"/><circle cx="332" cy="353"/><circle cx="479" cy="353"/><circle cx="486" cy="353"/><circle cx="507" cy="353"/><circle cx="514" cy="353"/><circle cx="521" cy="353"/><circle cx="528" cy="353"/><circle cx="185" cy="360"/><circle cx="192" cy="360"/><circle cx="199" cy="360"/><circle cx="206" cy="360"/><circle cx="521" cy="360"/><circle cx="528" cy="360"/><circle cx="563" cy="360"/><circle cx="570" cy="360"/><circle cx="192" cy="367"/><circle cx="521" cy="367"/><circle cx="570" cy="367"/><circle cx="185" cy="374"/><circle cx="192" cy="374"/><circle cx="563" cy="374"/><circle cx="185" cy="381"/><circle cx="192" cy="381"/><circle cx="556" cy="381"/><circle cx="192" cy="395"/></g>
</svg>
