<svg xmlns="http://www.w3.org/2000/svg" viewBox="0 0 1022 502" role="img" aria-label="World map (dot matrix)">
  <!-- Dot-matrix world map, Winkel-Tripel projection, generated by tools/gen_dotmap.py from Natural Earth land. Decorative backdrop for the "Title picks by continent" card; chalk dots, opacity set in CSS. -->
  <style>circle{r:3.0px}</style><g fill="#f6f3ea"><circle cx="246" cy="6"/><circle cx="256" cy="6"/><circle cx="276" cy="6"/><circle cx="286" cy="6"/><circle cx="296" cy="6"/><circle cx="306" cy="6"/><circle cx="316" cy="6"/><circle cx="326" cy="6"/><circle cx="336" cy="6"/><circle cx="346" cy="6"/><circle cx="356" cy="6"/><circle cx="366" cy="6"/><circle cx="376" cy="6"/><circle cx="386" cy="6"/><circle cx="396" cy="6"/><circle cx="406" cy="6"/><circle cx="416" cy="6"/><circle cx="656" cy="6"/><circle cx="666" cy="6"/><circle cx="186" cy="16"/><circle cx="196" cy="16"/><circle cx="256" cy="16"/><circle cx="266" cy="16"/><circle cx="296" cy="16"/><circle cx="306" cy="16"/><circle cx="316" cy="16"/><circle cx="326" cy="16"/><circle cx="336" cy="16"/><circle cx="346" cy="16"/><circle cx="356" cy="16"/><circle cx="366" cy="16"/><circle cx="376" cy="16"/><circle cx="386" cy="16"/><circle cx="396" cy="16"/><circle cx="486" cy="16"/><circle cx="686" cy="16"/><circle cx="696" cy="16"/><circle cx="706" cy="16"/><circle cx="776" cy="16"/><circle cx="56" cy="26"/><circle cx="66" cy="26"/><circle cx="76" cy="26"/><circle cx="156" cy="26"/><circle cx="196" cy="26"/><circle cx="226" cy="26"/><circle cx="316" cy="26"/><circle cx="326" cy="26"/><circle cx="336" cy="26"/><circle cx="346" cy="26"/><circle cx="356" cy="26"/><circle cx="366" cy="26"/><circle cx="376" cy="26"/><circle cx="386" cy="26"/><circle cx="396" cy="26"/><circle cx="586" cy="26"/><circle cx="596" cy="26"/><circle cx="666" cy="26"/><circle cx="676" cy="26"/><circle cx="686" cy="26"/><circle cx="696" cy="26"/><circle cx="706" cy="26"/><circle cx="716" cy="26"/><circle cx="726" cy="26"/><circle cx="736" cy="26"/><circle cx="746" cy="26"/><circle cx="756" cy="26"/><circle cx="796" cy="26"/><circle cx="806" cy="26"/><circle cx="816" cy="26"/><circle cx="826" cy="26"/><circle cx="836" cy="26"/><circle cx="856" cy="26"/><circle cx="876" cy="26"/><circle cx="886" cy="26"/><circle cx="26" cy="36"/><circle cx="46" cy="36"/><circle cx="56" cy="36"/><circle cx="66" cy="36"/><circle cx="76" cy="36"/><circle cx="86" cy="36"/><circle cx="96" cy="36"/><circle cx="106" cy="36"/><circle cx="116" cy="36"/><circle cx="126" cy="36"/><circle cx="136" cy="36"/><circle cx="156" cy="36"/><circle cx="166" cy="36"/><circle cx="176" cy="36"/><circle cx="186" cy="36"/><circle cx="216" cy="36"/><circle cx="236" cy="36"/><circle cx="246" cy="36"/><circle cx="256" cy="36"/><circle cx="316" cy="36"/><circle cx="326" cy="36"/><circle cx="336" cy="36"/><circle cx="346" cy="36"/><circle cx="356" cy="36"/><circle cx="366" cy="36"/><circle cx="376" cy="36"/><circle cx="386" cy="36"/><circle cx="586" cy="36"/><circle cx="626" cy="36"/><circle cx="636" cy="36"/><circle cx="646" cy="36"/><circle cx="656" cy="36"/><circle cx="666" cy="36"/><circle cx="676" cy="36"/><circle cx="686" cy="36"/><circle cx="696" cy="36"/><circle cx="706" cy="36"/><circle cx="716" cy="36"/><circle cx="726" cy="36"/><circle cx="736" cy="36"/><circle cx="746" cy="36"/><circle cx="756" cy="36"/><circle cx="766" cy="36"/><circle cx="776" cy="36"/><circle cx="786" cy="36"/><circle cx="796" cy="36"/><circle cx="806" cy="36"/><circle cx="816" cy="36"/><circle cx="826" cy="36"/><circle cx="836" cy="36"/><circle cx="846" cy="36"/><circle cx="856" cy="36"/><circle cx="866" cy="36"/><circle cx="876" cy="36"/><circle cx="886" cy="36"/><circle cx="896" cy="36"/><circle cx="906" cy="36"/><circle cx="16" cy="46"/><circle cx="26" cy="46"/><circle cx="36" cy="46"/><circle cx="46" cy="46"/><circle cx="56" cy="46"/><circle cx="66" cy="46"/><circle cx="76" cy="46"/><circle cx="86" cy="46"/><circle cx="96" cy="46"/><circle cx="106" cy="46"/><circle cx="116" cy="46"/><circle cx="126" cy="46"/><circle cx="136" cy="46"/><circle cx="146" cy="46"/><circle cx="156" cy="46"/><circle cx="166" cy="46"/><circle cx="176" cy="46"/><circle cx="196" cy="46"/><circle cx="206" cy="46"/><circle cx="216" cy="46"/><circle cx="236" cy="46"/><circle cx="256" cy="46"/><circle cx="266" cy="46"/><circle cx="276" cy="46"/><circle cx="326" cy="46"/><circle cx="336" cy="46"/><circle cx="346" cy="46"/><circle cx="356" cy="46"/><circle cx="366" cy="46"/><circle cx="376" cy="46"/><circle cx="386" cy="46"/><circle cx="506" cy="46"/><circle cx="516" cy="46"/><circle cx="526" cy="46"/><circle cx="616" cy="46"/><circle cx="636" cy="46"/><circle cx="646" cy="46"/><circle cx="656" cy="46"/><circle cx="666" cy="46"/><circle cx="676" cy="46"/><circle cx="686" cy="46"/><circle cx="696" cy="46"/><circle cx="706" cy="46"/><circle cx="716" cy="46"/><circle cx="726" cy="46"/><circle cx="736" cy="46"/><circle cx="746" cy="46"/><circle cx="756" cy="46"/><circle cx="766" cy="46"/><circle cx="776" cy="46"/><circle cx="786" cy="46"/><circle cx="796" cy="46"/><circle cx="806" cy="46"/><circle cx="816" cy="46"/><circle cx="826" cy="46"/><circle cx="836" cy="46"/><circle cx="846" cy="46"/><circle cx="856" cy="46"/><circle cx="866" cy="46"/><circle cx="876" cy="46"/><circle cx="886" cy="46"/><circle cx="896" cy="46"/><circle cx="906" cy="46"/><circle cx="6" cy="56"/><circle cx="16" cy="56"/><circle cx="26" cy="56"/><circle cx="36" cy="56"/><circle cx="46" cy="56"/><circle cx="56" cy="56"/><circle cx="66" cy="56"/><circle cx="76" cy="56"/><circle cx="86" cy="56"/><circle cx="96" cy="56"/><circle cx="106" cy="56"/><circle cx="116" cy="56"/><circle cx="126" cy="56"/><circle cx="136" cy="56"/><circle cx="146" cy="56"/><circle cx="156" cy="56"/><circle cx="166" cy="56"/><circle cx="176" cy="56"/><circle cx="186" cy="56"/><circle cx="196" cy="56"/><circle cx="206" cy="56"/><circle cx="216" cy="56"/><circle cx="256" cy="56"/><circle cx="266" cy="56"/><circle cx="276" cy="56"/><circle cx="316" cy="56"/><circle cx="326" cy="56"/><circle cx="336" cy="56"/><circle cx="346" cy="56"/><circle cx="356" cy="56"/><circle cx="496" cy="56"/><circle cx="506" cy="56"/><circle cx="516" cy="56"/><circle cx="526" cy="56"/><circle cx="536" cy="56"/><circle cx="546" cy="56"/><circle cx="556" cy="56"/><circle cx="586" cy="56"/><circle cx="596" cy="56"/><circle cx="606" cy="56"/><circle cx="616" cy="56"/><circle cx="626" cy="56"/><circle cx="636" cy="56"/><circle cx="646" cy="56"/><circle cx="656" cy="56"/><circle cx="666" cy="56"/><circle cx="676" cy="56"/><circle cx="686" cy="56"/><circle cx="696" cy="56"/><circle cx="706" cy="56"/><circle cx="716" cy="56"/><circle cx="726" cy="56"/><circle cx="736" cy="56"/><circle cx="746" cy="56"/><circle cx="756" cy="56"/><circle cx="766" cy="56"/><circle cx="776" cy="56"/><circle cx="786" cy="56"/><circle cx="796" cy="56"/><circle cx="806" cy="56"/><circle cx="816" cy="56"/><circle cx="826" cy="56"/><circle cx="836" cy="56"/><circle cx="846" cy="56"/><circle cx="856" cy="56"/><circle cx="866" cy="56"/><circle cx="896" cy="56"/><circle cx="16" cy="66"/><circle cx="66" cy="66"/><circle cx="76" cy="66"/><circle cx="86" cy="66"/><circle cx="96" cy="66"/><circle cx="106" cy="66"/><circle cx="116" cy="66"/><circle cx="126" cy="66"/><circle cx="136" cy="66"/><circle cx="146" cy="66"/><circle cx="156" cy="66"/><circle cx="166" cy="66"/><circle cx="176" cy="66"/><circle cx="186" cy="66"/><circle cx="256" cy="66"/><circle cx="266" cy="66"/><circle cx="316" cy="66"/><circle cx="326" cy="66"/><circle cx="336" cy="66"/><circle cx="396" cy="66"/><circle cx="406" cy="66"/><circle cx="486" cy="66"/><circle cx="496" cy="66"/><circle cx="506" cy="66"/><circle cx="516" cy="66"/><circle cx="526" cy="66"/><circle cx="536" cy="66"/><circle cx="546" cy="66"/><circle cx="556" cy="66"/><circle cx="566" cy="66"/><circle cx="576" cy="66"/><circle cx="586" cy="66"/><circle cx="596" cy="66"/><circle cx="606" cy="66"/><circle cx="616" cy="66"/><circle cx="626" cy="66"/><circle cx="636" cy="66"/><circle cx="646" cy="66"/><circle cx="656" cy="66"/><circle cx="666" cy="66"/><circle cx="676" cy="66"/><circle cx="686" cy="66"/><circle cx="696" cy="66"/><circle cx="706" cy="66"/><circle cx="716" cy="66"/><circle cx="726" cy="66"/><circle cx="736" cy="66"/><circle cx="746" cy="66"/><circle cx="756" cy="66"/><circle cx="766" cy="66"/><circle cx="776" cy="66"/><circle cx="786" cy="66"/><circle cx="796" cy="66"/><circle cx="806" cy="66"/><circle cx="816" cy="66"/><circle cx="826" cy="66"/><circle cx="836" cy="66"/><circle cx="846" cy="66"/><circle cx="896" cy="66"/><circle cx="906" cy="66"/><circle cx="76" cy="76"/><circle cx="86" cy="76"/><circle cx="96" cy="76"/><circle cx="106" cy="76"/><circle cx="116" cy="76"/><circle cx="126" cy="76"/><circle cx="136" cy="76"/><circle cx="146" cy="76"/><circle cx="156" cy="76"/><circle cx="166" cy="76"/><circle cx="176" cy="76"/><circle cx="236" cy="76"/><circle cx="246" cy="76"/><circle cx="316" cy="76"/><circle cx="326" cy="76"/><circle cx="466" cy="76"/><circle cx="476" cy="76"/><circle cx="486" cy="76"/><circle cx="496" cy="76"/><circle cx="516" cy="76"/><circle cx="526" cy="76"/><circle cx="536" cy="76"/><circle cx="546" cy="76"/><circle cx="556" cy="76"/><circle cx="566" cy="76"/><circle cx="576" cy="76"/><circle cx="586" cy="76"/><circle cx="596" cy="76"/><circle cx="606" cy="76"/><circle cx="616" cy="76"/><circle cx="626" cy="76"/><circle cx="636" cy="76"/><circle cx="646" cy="76"/><circle cx="656" cy="76"/><circle cx="666" cy="76"/><circle cx="676" cy="76"/><circle cx="686" cy="76"/><circle cx="696" cy="76"/><circle cx="706" cy="76"/><circle cx="716" cy="76"/><circle cx="726" cy="76"/><circle cx="736" cy="76"/><circle cx="746" cy="76"/><circle cx="756" cy="76"/><circle cx="766" cy="76"/><circle cx="776" cy="76"/><circle cx="786" cy="76"/><circle cx="796" cy="76"/><circle cx="806" cy="76"/><circle cx="816" cy="76"/><circle cx="826" cy="76"/><circle cx="836" cy="76"/><circle cx="906" cy="76"/><circle cx="76" cy="86"/><circle cx="86" cy="86"/><circle cx="96" cy="86"/><circle cx="106" cy="86"/><circle cx="116" cy="86"/><circle cx="126" cy="86"/><circle cx="136" cy="86"/><circle cx="146" cy="86"/><circle cx="156" cy="86"/><circle cx="166" cy="86"/><circle cx="176" cy="86"/><circle cx="186" cy="86"/><circle cx="236" cy="86"/><circle cx="246" cy="86"/><circle cx="256" cy="86"/><circle cx="266" cy="86"/><circle cx="476" cy="86"/><circle cx="486" cy="86"/><circle cx="496" cy="86"/><circle cx="526" cy="86"/><circle cx="536" cy="86"/><circle cx="546" cy="86"/><circle cx="556" cy="86"/><circle cx="566" cy="86"/><circle cx="576" cy="86"/><circle cx="586" cy="86"/><circle cx="596" cy="86"/><circle cx="606" cy="86"/><circle cx="616" cy="86"/><circle cx="626" cy="86"/><circle cx="636" cy="86"/><circle cx="646" cy="86"/><circle cx="656" cy="86"/><circle cx="666" cy="86"/><circle cx="676" cy="86"/><circle cx="686" cy="86"/><circle cx="696" cy="86"/><circle cx="706" cy="86"/><circle cx="716" cy="86"/><circle cx="726" cy="86"/><circle cx="736" cy="86"/><circle cx="746" cy="86"/><circle cx="756" cy="86"/><circle cx="766" cy="86"/><circle cx="776" cy="86"/><circle cx="786" cy="86"/><circle cx="796" cy="86"/><circle cx="806" cy="86"/><circle cx="816" cy="86"/><circle cx="826" cy="86"/><circle cx="836" cy="86"/><circle cx="846" cy="86"/><circle cx="856" cy="86"/><circle cx="916" cy="86"/><circle cx="76" cy="96"/><circle cx="86" cy="96"/><circle cx="96" cy="96"/><circle cx="106" cy="96"/><circle cx="116" cy="96"/><circle cx="126" cy="96"/><circle cx="136" cy="96"/><circle cx="146" cy="96"/><circle cx="156" cy="96"/><circle cx="166" cy="96"/><circle cx="176" cy="96"/><circle cx="186" cy="96"/><circle cx="196" cy="96"/><circle cx="216" cy="96"/><circle cx="226" cy="96"/><circle cx="236" cy="96"/><circle cx="246" cy="96"/><circle cx="256" cy="96"/><circle cx="266" cy="96"/><circle cx="436" cy="96"/><circle cx="476" cy="96"/><circle cx="516" cy="96"/><circle cx="526" cy="96"/><circle cx="536" cy="96"/><circle cx="546" cy="96"/><circle cx="556" cy="96"/><circle cx="566" cy="96"/><circle cx="576" cy="96"/><circle cx="586" cy="96"/><circle cx="596" cy="96"/><circle cx="606" cy="96"/><circle cx="616" cy="96"/><circle cx="626" cy="96"/><circle cx="636" cy="96"/><circle cx="646" cy="96"/><circle cx="656" cy="96"/><circle cx="666" cy="96"/><circle cx="676" cy="96"/><circle cx="686" cy="96"/><circle cx="696" cy="96"/><circle cx="706" cy="96"/><circle cx="716" cy="96"/><circle cx="726" cy="96"/><circle cx="736" cy="96"/><circle cx="746" cy="96"/><circle cx="756" cy="96"/><circle cx="766" cy="96"/><circle cx="776" cy="96"/><circle cx="786" cy="96"/><circle cx="796" cy="96"/><circle cx="806" cy="96"/><circle cx="816" cy="96"/><circle cx="826" cy="96"/><circle cx="836" cy="96"/><circle cx="846" cy="96"/><circle cx="856" cy="96"/><circle cx="866" cy="96"/><circle cx="66" cy="106"/><circle cx="76" cy="106"/><circle cx="86" cy="106"/><circle cx="96" cy="106"/><circle cx="106" cy="106"/><circle cx="116" cy="106"/><circle cx="126" cy="106"/><circle cx="136" cy="106"/><circle cx="146" cy="106"/><circle cx="156" cy="106"/><circle cx="166" cy="106"/><circle cx="176" cy="106"/><circle cx="186" cy="106"/><circle cx="196" cy="106"/><circle cx="216" cy="106"/><circle cx="226" cy="106"/><circle cx="236" cy="106"/><circle cx="246" cy="106"/><circle cx="256" cy="106"/><circle cx="266" cy="106"/><circle cx="276" cy="106"/><circle cx="426" cy="106"/><circle cx="446" cy="106"/><circle cx="476" cy="106"/><circle cx="486" cy="106"/><circle cx="496" cy="106"/><circle cx="506" cy="106"/><circle cx="516" cy="106"/><circle cx="526" cy="106"/><circle cx="536" cy="106"/><circle cx="546" cy="106"/><circle cx="556" cy="106"/><circle cx="566" cy="106"/><circle cx="576" cy="106"/><circle cx="586" cy="106"/><circle cx="596" cy="106"/><circle cx="606" cy="106"/><circle cx="616" cy="106"/><circle cx="626" cy="106"/><circle cx="636" cy="106"/><circle cx="646" cy="106"/><circle cx="656" cy="106"/><circle cx="666" cy="106"/><circle cx="676" cy="106"/><circle cx="686" cy="106"/><circle cx="696" cy="106"/><circle cx="706" cy="106"/><circle cx="716" cy="106"/><circle cx="726" cy="106"/><circle cx="736" cy="106"/><circle cx="746" cy="106"/><circle cx="756" cy="106"/><circle cx="766" cy="106"/><circle cx="776" cy="106"/><circle cx="786" cy="106"/><circle cx="796" cy="106"/><circle cx="806" cy="106"/><circle cx="816" cy="106"/><circle cx="826" cy="106"/><circle cx="836" cy="106"/><circle cx="846" cy="106"/><circle cx="856" cy="106"/><circle cx="866" cy="106"/><circle cx="876" cy="106"/><circle cx="886" cy="106"/><circle cx="66" cy="116"/><circle cx="76" cy="116"/><circle cx="86" cy="116"/><circle cx="96" cy="116"/><circle cx="106" cy="116"/><circle cx="116" cy="116"/><circle cx="126" cy="116"/><circle cx="136" cy="116"/><circle cx="146" cy="116"/><circle cx="156" cy="116"/><circle cx="166" cy="116"/><circle cx="176" cy="116"/><circle cx="186" cy="116"/><circle cx="196" cy="116"/><circle cx="206" cy="116"/><circle cx="216" cy="116"/><circle cx="226" cy="116"/><circle cx="236" cy="116"/><circle cx="256" cy="116"/><circle cx="276" cy="116"/><circle cx="436" cy="116"/><circle cx="456" cy="116"/><circle cx="466" cy="116"/><circle cx="476" cy="116"/><circle cx="486" cy="116"/><circle cx="496" cy="116"/><circle cx="506" cy="116"/><circle cx="516" cy="116"/><circle cx="526" cy="116"/><circle cx="536" cy="116"/><circle cx="546" cy="116"/><circle cx="556" cy="116"/><circle cx="566" cy="116"/><circle cx="576" cy="116"/><circle cx="586" cy="116"/><circle cx="596" cy="116"/><circle cx="606" cy="116"/><circle cx="616" cy="116"/><circle cx="626" cy="116"/><circle cx="636" cy="116"/><circle cx="646" cy="116"/><circle cx="656" cy="116"/><circle cx="666" cy="116"/><circle cx="676" cy="116"/><circle cx="686" cy="116"/><circle cx="696" cy="116"/><circle cx="706" cy="116"/><circle cx="716" cy="116"/><circle cx="726" cy="116"/><circle cx="736" cy="116"/><circle cx="746" cy="116"/><circle cx="756" cy="116"/><circle cx="766" cy="116"/><circle cx="776" cy="116"/><circle cx="786" cy="116"/><circle cx="796" cy="116"/><circle cx="806" cy="116"/><circle cx="816" cy="116"/><circle cx="826" cy="116"/><circle cx="836" cy="116"/><circle cx="846" cy="116"/><circle cx="856" cy="116"/><circle cx="866" cy="116"/><circle cx="876" cy="116"/><circle cx="66" cy="126"/><circle cx="76" cy="126"/><circle cx="86" cy="126"/><circle cx="96" cy="126"/><circle cx="106" cy="126"/><circle cx="116" cy="126"/><circle cx="126" cy="126"/><circle cx="136" cy="126"/><circle cx="146" cy="126"/><circle cx="156" cy="126"/><circle cx="166" cy="126"/><circle cx="176" cy="126"/><circle cx="186" cy="126"/><circle cx="196" cy="126"/><circle cx="206" cy="126"/><circle cx="216" cy="126"/><circle cx="226" cy="126"/><circle cx="236" cy="126"/><circle cx="246" cy="126"/><circle cx="276" cy="126"/><circle cx="446" cy="126"/><circle cx="456" cy="126"/><circle cx="466" cy="126"/><circle cx="476" cy="126"/><circle cx="486" cy="126"/><circle cx="496" cy="126"/><circle cx="506" cy="126"/><circle cx="516" cy="126"/><circle cx="526" cy="126"/><circle cx="536" cy="126"/><circle cx="546" cy="126"/><circle cx="556" cy="126"/><circle cx="566" cy="126"/><circle cx="576" cy="126"/><circle cx="586" cy="126"/><circle cx="596" cy="126"/><circle cx="606" cy="126"/><circle cx="616" cy="126"/><circle cx="626" cy="126"/><circle cx="636" cy="126"/><circle cx="646" cy="126"/><circle cx="656" cy="126"/><circle cx="666" cy="126"/><circle cx="676" cy="126"/><circle cx="686" cy="126"/><circle cx="696" cy="126"/><circle cx="706" cy="126"/><circle cx="716" cy="126"/><circle cx="726" cy="126"/><circle cx="736" cy="126"/><circle cx="746" cy="126"/><circle cx="756" cy="126"/><circle cx="766" cy="126"/><circle cx="776" cy="126"/><circle cx="786" cy="126"/><circle cx="796" cy="126"/><circle cx="806" cy="126"/><circle cx="816" cy="126"/><circle cx="826" cy="126"/><circle cx="836" cy="126"/><circle cx="846" cy="126"/><circle cx="856" cy="126"/><circle cx="866" cy="126"/><circle cx="896" cy="126"/><circle cx="56" cy="136"/><circle cx="66" cy="136"/><circle cx="76" cy="136"/><circle cx="86" cy="136"/><circle cx="96" cy="136"/><circle cx="106" cy="136"/><circle cx="116" cy="136"/><circle cx="126" cy="136"/><circle cx="136" cy="136"/><circle cx="146" cy="136"/><circle cx="156" cy="136"/><circle cx="166" cy="136"/><circle cx="176" cy="136"/><circle cx="186" cy="136"/><circle cx="196" cy="136"/><circle cx="206" cy="136"/><circle cx="216" cy="136"/><circle cx="226" cy="136"/><circle cx="456" cy="136"/><circle cx="466" cy="136"/><circle cx="476" cy="136"/><circle cx="486" cy="136"/><circle cx="506" cy="136"/><circle cx="516" cy="136"/><circle cx="526" cy="136"/><circle cx="536" cy="136"/><circle cx="576" cy="136"/><circle cx="586" cy="136"/><circle cx="596" cy="136"/><circle cx="616" cy="136"/><circle cx="626" cy="136"/><circle cx="636" cy="136"/><circle cx="646" cy="136"/><circle cx="656" cy="136"/><circle cx="666" cy="136"/><circle cx="676" cy="136"/><circle cx="686" cy="136"/><circle cx="696" cy="136"/><circle cx="706" cy="136"/><circle cx="716" cy="136"/><circle cx="726" cy="136"/><circle cx="736" cy="136"/><circle cx="746" cy="136"/><circle cx="756" cy="136"/><circle cx="766" cy="136"/><circle cx="776" cy="136"/><circle cx="786" cy="136"/><circle cx="796" cy="136"/><circle cx="806" cy="136"/><circle cx="816" cy="136"/><circle cx="826" cy="136"/><circle cx="836" cy="136"/><circle cx="846" cy="136"/><circle cx="856" cy="136"/><circle cx="866" cy="136"/><circle cx="906" cy="136"/><circle cx="56" cy="146"/><circle cx="66" cy="146"/><circle cx="76" cy="146"/><circle cx="86" cy="146"/><circle cx="96" cy="146"/><circle cx="106" cy="146"/><circle cx="116" cy="146"/><circle cx="126" cy="146"/><circle cx="136" cy="146"/><circle cx="146" cy="146"/><circle cx="156" cy="146"/><circle cx="166" cy="146"/><circle cx="176" cy="146"/><circle cx="186" cy="146"/><circle cx="196" cy="146"/><circle cx="206" cy="146"/><circle cx="216" cy="146"/><circle cx="426" cy="146"/><circle cx="436" cy="146"/><circle cx="446" cy="146"/><circle cx="456" cy="146"/><circle cx="496" cy="146"/><circle cx="516" cy="146"/><circle cx="526" cy="146"/><circle cx="536" cy="146"/><circle cx="586" cy="146"/><circle cx="596" cy="146"/><circle cx="606" cy="146"/><circle cx="636" cy="146"/><circle cx="646" cy="146"/><circle cx="656" cy="146"/><circle cx="666" cy="146"/><circle cx="676" cy="146"/><circle cx="686" cy="146"/><circle cx="696" cy="146"/><circle cx="706" cy="146"/><circle cx="716" cy="146"/><circle cx="726" cy="146"/><circle cx="736" cy="146"/><circle cx="746" cy="146"/><circle cx="756" cy="146"/><circle cx="766" cy="146"/><circle cx="776" cy="146"/><circle cx="786" cy="146"/><circle cx="796" cy="146"/><circle cx="806" cy="146"/><circle cx="816" cy="146"/><circle cx="826" cy="146"/><circle cx="866" cy="146"/><circle cx="906" cy="146"/><circle cx="56" cy="156"/><circle cx="66" cy="156"/><circle cx="76" cy="156"/><circle cx="86" cy="156"/><circle cx="96" cy="156"/><circle cx="106" cy="156"/><circle cx="116" cy="156"/><circle cx="126" cy="156"/><circle cx="136" cy="156"/><circle cx="146" cy="156"/><circle cx="156" cy="156"/><circle cx="166" cy="156"/><circle cx="176" cy="156"/><circle cx="186" cy="156"/><circle cx="196" cy="156"/><circle cx="426" cy="156"/><circle cx="436" cy="156"/><circle cx="446" cy="156"/><circle cx="506" cy="156"/><circle cx="526" cy="156"/><circle cx="546" cy="156"/><circle cx="556" cy="156"/><circle cx="566" cy="156"/><circle cx="576" cy="156"/><circle cx="586" cy="156"/><circle cx="596" cy="156"/><circle cx="606" cy="156"/><circle cx="636" cy="156"/><circle cx="646" cy="156"/><circle cx="656" cy="156"/><circle cx="666" cy="156"/><circle cx="676" cy="156"/><circle cx="686" cy="156"/><circle cx="696" cy="156"/><circle cx="706" cy="156"/><circle cx="716" cy="156"/><circle cx="726" cy="156"/><circle cx="736" cy="156"/><circle cx="746" cy="156"/><circle cx="756" cy="156"/><circle cx="766" cy="156"/><circle cx="776" cy="156"/><circle cx="786" cy="156"/><circle cx="796" cy="156"/><circle cx="806" cy="156"/><circle cx="816" cy="156"/><circle cx="826" cy="156"/><circle cx="836" cy="156"/><circle cx="846" cy="156"/><circle cx="876" cy="156"/><circle cx="896" cy="156"/><circle cx="906" cy="156"/><circle cx="66" cy="166"/><circle cx="76" cy="166"/><circle cx="86" cy="166"/><circle cx="96" cy="166"/><circle cx="106" cy="166"/><circle cx="116" cy="166"/><circle cx="126" cy="166"/><circle cx="136" cy="166"/><circle cx="146" cy="166"/><circle cx="156" cy="166"/><circle cx="166" cy="166"/><circle cx="176" cy="166"/><circle cx="186" cy="166"/><circle cx="196" cy="166"/><circle cx="466" cy="166"/><circle cx="476" cy="166"/><circle cx="486" cy="166"/><circle cx="526" cy="166"/><circle cx="576" cy="166"/><circle cx="586" cy="166"/><circle cx="596" cy="166"/><circle cx="606" cy="166"/><circle cx="616" cy="166"/><circle cx="626" cy="166"/><circle cx="636" cy="166"/><circle cx="646" cy="166"/><circle cx="656" cy="166"/><circle cx="666" cy="166"/><circle cx="676" cy="166"/><circle cx="686" cy="166"/><circle cx="696" cy="166"/><circle cx="706" cy="166"/><circle cx="716" cy="166"/><circle cx="726" cy="166"/><circle cx="736" cy="166"/><circle cx="746" cy="166"/><circle cx="756" cy="166"/><circle cx="766" cy="166"/><circle cx="776" cy="166"/><circle cx="786" cy="166"/><circle cx="796" cy="166"/><circle cx="806" cy="166"/><circle cx="816" cy="166"/><circle cx="826" cy="166"/><circle cx="836" cy="166"/><circle cx="846" cy="166"/><circle cx="886" cy="166"/><circle cx="76" cy="176"/><circle cx="86" cy="176"/><circle cx="96" cy="176"/><circle cx="106" cy="176"/><circle cx="116" cy="176"/><circle cx="126" cy="176"/><circle cx="136" cy="176"/><circle cx="146" cy="176"/><circle cx="156" cy="176"/><circle cx="166" cy="176"/><circle cx="176" cy="176"/><circle cx="426" cy="176"/><circle cx="436" cy="176"/><circle cx="446" cy="176"/><circle cx="456" cy="176"/><circle cx="466" cy="176"/><circle cx="476" cy="176"/><circle cx="576" cy="176"/><circle cx="586" cy="176"/><circle cx="596" cy="176"/><circle cx="606" cy="176"/><circle cx="616" cy="176"/><circle cx="626" cy="176"/><circle cx="636" cy="176"/><circle cx="646" cy="176"/><circle cx="656" cy="176"/><circle cx="666" cy="176"/><circle cx="676" cy="176"/><circle cx="686" cy="176"/><circle cx="696" cy="176"/><circle cx="706" cy="176"/><circle cx="716" cy="176"/><circle cx="726" cy="176"/><circle cx="736" cy="176"/><circle cx="746" cy="176"/><circle cx="756" cy="176"/><circle cx="766" cy="176"/><circle cx="776" cy="176"/><circle cx="786" cy="176"/><circle cx="796" cy="176"/><circle cx="806" cy="176"/><circle cx="816" cy="176"/><circle cx="826" cy="176"/><circle cx="836" cy="176"/><circle cx="846" cy="176"/><circle cx="856" cy="176"/><circle cx="76" cy="186"/><circle cx="86" cy="186"/><circle cx="96" cy="186"/><circle cx="106" cy="186"/><circle cx="116" cy="186"/><circle cx="126" cy="186"/><circle cx="166" cy="186"/><circle cx="426" cy="186"/><circle cx="436" cy="186"/><circle cx="446" cy="186"/><circle cx="456" cy="186"/><circle cx="466" cy="186"/><circle cx="476" cy="186"/><circle cx="486" cy="186"/><circle cx="496" cy="186"/><circle cx="506" cy="186"/><circle cx="526" cy="186"/><circle cx="536" cy="186"/><circle cx="546" cy="186"/><circle cx="556" cy="186"/><circle cx="566" cy="186"/><circle cx="576" cy="186"/><circle cx="586" cy="186"/><circle cx="596" cy="186"/><circle cx="606" cy="186"/><circle cx="616" cy="186"/><circle cx="626" cy="186"/><circle cx="636" cy="186"/><circle cx="646" cy="186"/><circle cx="656" cy="186"/><circle cx="666" cy="186"/><circle cx="676" cy="186"/><circle cx="686" cy="186"/><circle cx="696" cy="186"/><circle cx="706" cy="186"/><circle cx="716" cy="186"/><circle cx="726" cy="186"/><circle cx="736" cy="186"/><circle cx="746" cy="186"/><circle cx="756" cy="186"/><circle cx="766" cy="186"/><circle cx="776" cy="186"/><circle cx="786" cy="186"/><circle cx="796" cy="186"/><circle cx="806" cy="186"/><circle cx="816" cy="186"/><circle cx="826" cy="186"/><circle cx="836" cy="186"/><circle cx="846" cy="186"/><circle cx="856" cy="186"/><circle cx="66" cy="196"/><circle cx="76" cy="196"/><circle cx="86" cy="196"/><circle cx="96" cy="196"/><circle cx="106" cy="196"/><circle cx="416" cy="196"/><circle cx="426" cy="196"/><circle cx="436" cy="196"/><circle cx="446" cy="196"/><circle cx="456" cy="196"/><circle cx="466" cy="196"/><circle cx="476" cy="196"/><circle cx="486" cy="196"/><circle cx="496" cy="196"/><circle cx="506" cy="196"/><circle cx="516" cy="196"/><circle cx="526" cy="196"/><circle cx="536" cy="196"/><circle cx="546" cy="196"/><circle cx="556" cy="196"/><circle cx="566" cy="196"/><circle cx="576" cy="196"/><circle cx="586" cy="196"/><circle cx="596" cy="196"/><circle cx="606" cy="196"/><circle cx="616" cy="196"/><circle cx="636" cy="196"/><circle cx="646" cy="196"/><circle cx="656" cy="196"/><circle cx="666" cy="196"/><circle cx="676" cy="196"/><circle cx="686" cy="196"/><circle cx="696" cy="196"/><circle cx="706" cy="196"/><circle cx="716" cy="196"/><circle cx="726" cy="196"/><circle cx="736" cy="196"/><circle cx="746" cy="196"/><circle cx="756" cy="196"/><circle cx="766" cy="196"/><circle cx="776" cy="196"/><circle cx="786" cy="196"/><circle cx="796" cy="196"/><circle cx="806" cy="196"/><circle cx="816" cy="196"/><circle cx="826" cy="196"/><circle cx="836" cy="196"/><circle cx="846" cy="196"/><circle cx="856" cy="196"/><circle cx="86" cy="206"/><circle cx="96" cy="206"/><circle cx="106" cy="206"/><circle cx="406" cy="206"/><circle cx="416" cy="206"/><circle cx="426" cy="206"/><circle cx="436" cy="206"/><circle cx="446" cy="206"/><circle cx="456" cy="206"/><circle cx="466" cy="206"/><circle cx="476" cy="206"/><circle cx="486" cy="206"/><circle cx="496" cy="206"/><circle cx="506" cy="206"/><circle cx="516" cy="206"/><circle cx="526" cy="206"/><circle cx="536" cy="206"/><circle cx="546" cy="206"/><circle cx="556" cy="206"/><circle cx="566" cy="206"/><circle cx="586" cy="206"/><circle cx="596" cy="206"/><circle cx="606" cy="206"/><circle cx="616" cy="206"/><circle cx="686" cy="206"/><circle cx="696" cy="206"/><circle cx="706" cy="206"/><circle cx="716" cy="206"/><circle cx="726" cy="206"/><circle cx="736" cy="206"/><circle cx="746" cy="206"/><circle cx="756" cy="206"/><circle cx="766" cy="206"/><circle cx="776" cy="206"/><circle cx="786" cy="206"/><circle cx="796" cy="206"/><circle cx="806" cy="206"/><circle cx="816" cy="206"/><circle cx="826" cy="206"/><circle cx="836" cy="206"/><circle cx="846" cy="206"/><circle cx="86" cy="216"/><circle cx="96" cy="216"/><circle cx="106" cy="216"/><circle cx="176" cy="216"/><circle cx="396" cy="216"/><circle cx="406" cy="216"/><circle cx="416" cy="216"/><circle cx="426" cy="216"/><circle cx="436" cy="216"/><circle cx="446" cy="216"/><circle cx="456" cy="216"/><circle cx="466" cy="216"/><circle cx="476" cy="216"/><circle cx="486" cy="216"/><circle cx="496" cy="216"/><circle cx="506" cy="216"/><circle cx="516" cy="216"/><circle cx="526" cy="216"/><circle cx="536" cy="216"/><circle cx="546" cy="216"/><circle cx="556" cy="216"/><circle cx="566" cy="216"/><circle cx="576" cy="216"/><circle cx="596" cy="216"/><circle cx="606" cy="216"/><circle cx="616" cy="216"/><circle cx="626" cy="216"/><circle cx="636" cy="216"/><circle cx="646" cy="216"/><circle cx="656" cy="216"/><circle cx="696" cy="216"/><circle cx="706" cy="216"/><circle cx="716" cy="216"/><circle cx="726" cy="216"/><circle cx="736" cy="216"/><circle cx="746" cy="216"/><circle cx="756" cy="216"/><circle cx="776" cy="216"/><circle cx="786" cy="216"/><circle cx="796" cy="216"/><circle cx="806" cy="216"/><circle cx="816" cy="216"/><circle cx="836" cy="216"/><circle cx="96" cy="226"/><circle cx="106" cy="226"/><circle cx="136" cy="226"/><circle cx="196" cy="226"/><circle cx="206" cy="226"/><circle cx="396" cy="226"/><circle cx="406" cy="226"/><circle cx="416" cy="226"/><circle cx="426" cy="226"/><circle cx="436" cy="226"/><circle cx="446" cy="226"/><circle cx="456" cy="226"/><circle cx="466" cy="226"/><circle cx="476" cy="226"/><circle cx="486" cy="226"/><circle cx="496" cy="226"/><circle cx="506" cy="226"/><circle cx="516" cy="226"/><circle cx="526" cy="226"/><circle cx="536" cy="226"/><circle cx="546" cy="226"/><circle cx="556" cy="226"/><circle cx="566" cy="226"/><circle cx="576" cy="226"/><circle cx="596" cy="226"/><circle cx="606" cy="226"/><circle cx="616" cy="226"/><circle cx="626" cy="226"/><circle cx="636" cy="226"/><circle cx="646" cy="226"/><circle cx="716" cy="226"/><circle cx="726" cy="226"/><circle cx="736" cy="226"/><circle cx="746" cy="226"/><circle cx="786" cy="226"/><circle cx="796" cy="226"/><circle cx="806" cy="226"/><circle cx="816" cy="226"/><circle cx="836" cy="226"/><circle cx="876" cy="226"/><circle cx="106" cy="236"/><circle cx="126" cy="236"/><circle cx="136" cy="236"/><circle cx="396" cy="236"/><circle cx="406" cy="236"/><circle cx="416" cy="236"/><circle cx="426" cy="236"/><circle cx="436" cy="236"/><circle cx="446" cy="236"/><circle cx="456" cy="236"/><circle cx="466" cy="236"/><circle cx="476" cy="236"/><circle cx="486" cy="236"/><circle cx="496" cy="236"/><circle cx="506" cy="236"/><circle cx="516" cy="236"/><circle cx="526" cy="236"/><circle cx="536" cy="236"/><circle cx="546" cy="236"/><circle cx="556" cy="236"/><circle cx="566" cy="236"/><circle cx="576" cy="236"/><circle cx="586" cy="236"/><circle cx="606" cy="236"/><circle cx="616" cy="236"/><circle cx="626" cy="236"/><circle cx="636" cy="236"/><circle cx="716" cy="236"/><circle cx="726" cy="236"/><circle cx="736" cy="236"/><circle cx="786" cy="236"/><circle cx="796" cy="236"/><circle cx="806" cy="236"/><circle cx="816" cy="236"/><circle cx="826" cy="236"/><circle cx="876" cy="236"/><circle cx="136" cy="246"/><circle cx="146" cy="246"/><circle cx="396" cy="246"/><circle cx="406" cy="246"/><circle cx="416" cy="246"/><circle cx="426" cy="246"/><circle cx="436" cy="246"/><circle cx="446" cy="246"/><circle cx="456" cy="246"/><circle cx="466" cy="246"/><circle cx="476" cy="246"/><circle cx="486" cy="246"/><circle cx="496" cy="246"/><circle cx="506" cy="246"/><circle cx="516" cy="246"/><circle cx="526" cy="246"/><circle cx="536" cy="246"/><circle cx="546" cy="246"/><circle cx="556" cy="246"/><circle cx="566" cy="246"/><circle cx="576" cy="246"/><circle cx="586" cy="246"/><circle cx="596" cy="246"/><circle cx="606" cy="246"/><circle cx="616" cy="246"/><circle cx="716" cy="246"/><circle cx="726" cy="246"/><circle cx="816" cy="246"/><circle cx="826" cy="246"/><circle cx="836" cy="246"/><circle cx="146" cy="256"/><circle cx="206" cy="256"/><circle cx="396" cy="256"/><circle cx="406" cy="256"/><circle cx="416" cy="256"/><circle cx="426" cy="256"/><circle cx="436" cy="256"/><circle cx="446" cy="256"/><circle cx="456" cy="256"/><circle cx="466" cy="256"/><circle cx="476" cy="256"/><circle cx="486" cy="256"/><circle cx="496" cy="256"/><circle cx="506" cy="256"/><circle cx="516" cy="256"/><circle cx="526" cy="256"/><circle cx="536" cy="256"/><circle cx="546" cy="256"/><circle cx="556" cy="256"/><circle cx="566" cy="256"/><circle cx="576" cy="256"/><circle cx="586" cy="256"/><circle cx="596" cy="256"/><circle cx="626" cy="256"/><circle cx="726" cy="256"/><circle cx="826" cy="256"/><circle cx="876" cy="256"/><circle cx="896" cy="256"/><circle cx="156" cy="266"/><circle cx="176" cy="266"/><circle cx="186" cy="266"/><circle cx="196" cy="266"/><circle cx="206" cy="266"/><circle cx="216" cy="266"/><circle cx="226" cy="266"/><circle cx="236" cy="266"/><circle cx="406" cy="266"/><circle cx="416" cy="266"/><circle cx="426" cy="266"/><circle cx="436" cy="266"/><circle cx="446" cy="266"/><circle cx="456" cy="266"/><circle cx="466" cy="266"/><circle cx="476" cy="266"/><circle cx="486" cy="266"/><circle cx="496" cy="266"/><circle cx="506" cy="266"/><circle cx="516" cy="266"/><circle cx="526" cy="266"/><circle cx="536" cy="266"/><circle cx="546" cy="266"/><circle cx="556" cy="266"/><circle cx="566" cy="266"/><circle cx="576" cy="266"/><circle cx="586" cy="266"/><circle cx="596" cy="266"/><circle cx="606" cy="266"/><circle cx="616" cy="266"/><circle cx="626" cy="266"/><circle cx="726" cy="266"/><circle cx="736" cy="266"/><circle cx="806" cy="266"/><circle cx="896" cy="266"/><circle cx="176" cy="276"/><circle cx="186" cy="276"/><circle cx="196" cy="276"/><circle cx="206" cy="276"/><circle cx="216" cy="276"/><circle cx="226" cy="276"/><circle cx="236" cy="276"/><circle cx="246" cy="276"/><circle cx="256" cy="276"/><circle cx="416" cy="276"/><circle cx="426" cy="276"/><circle cx="436" cy="276"/><circle cx="446" cy="276"/><circle cx="476" cy="276"/><circle cx="486" cy="276"/><circle cx="496" cy="276"/><circle cx="506" cy="276"/><circle cx="516" cy="276"/><circle cx="526" cy="276"/><circle cx="536" cy="276"/><circle cx="546" cy="276"/><circle cx="556" cy="276"/><circle cx="566" cy="276"/><circle cx="576" cy="276"/><circle cx="586" cy="276"/><circle cx="596" cy="276"/><circle cx="606" cy="276"/><circle cx="616" cy="276"/><circle cx="816" cy="276"/><circle cx="866" cy="276"/><circle cx="876" cy="276"/><circle cx="176" cy="286"/><circle cx="186" cy="286"/><circle cx="196" cy="286"/><circle cx="206" cy="286"/><circle cx="216" cy="286"/><circle cx="226" cy="286"/><circle cx="236" cy="286"/><circle cx="246" cy="286"/><circle cx="256" cy="286"/><circle cx="266" cy="286"/><circle cx="486" cy="286"/><circle cx="496" cy="286"/><circle cx="506" cy="286"/><circle cx="516" cy="286"/><circle cx="526" cy="286"/><circle cx="536" cy="286"/><circle cx="546" cy="286"/><circle cx="556" cy="286"/><circle cx="566" cy="286"/><circle cx="576" cy="286"/><circle cx="586" cy="286"/><circle cx="596" cy="286"/><circle cx="606" cy="286"/><circle cx="616" cy="286"/><circle cx="806" cy="286"/><circle cx="816" cy="286"/><circle cx="856" cy="286"/><circle cx="866" cy="286"/><circle cx="166" cy="296"/><circle cx="176" cy="296"/><circle cx="186" cy="296"/><circle cx="196" cy="296"/><circle cx="206" cy="296"/><circle cx="216" cy="296"/><circle cx="226" cy="296"/><circle cx="236" cy="296"/><circle cx="246" cy="296"/><circle cx="256" cy="296"/><circle cx="266" cy="296"/><circle cx="486" cy="296"/><circle cx="496" cy="296"/><circle cx="506" cy="296"/><circle cx="516" cy="296"/><circle cx="526" cy="296"/><circle cx="536" cy="296"/><circle cx="546" cy="296"/><circle cx="556" cy="296"/><circle cx="566" cy="296"/><circle cx="576" cy="296"/><circle cx="586" cy="296"/><circle cx="596" cy="296"/><circle cx="816" cy="296"/><circle cx="846" cy="296"/><circle cx="856" cy="296"/><circle cx="866" cy="296"/><circle cx="166" cy="306"/><circle cx="176" cy="306"/><circle cx="186" cy="306"/><circle cx="196" cy="306"/><circle cx="206" cy="306"/><circle cx="216" cy="306"/><circle cx="226" cy="306"/><circle cx="236" cy="306"/><circle cx="246" cy="306"/><circle cx="256" cy="306"/><circle cx="266" cy="306"/><circle cx="276" cy="306"/><circle cx="286" cy="306"/><circle cx="486" cy="306"/><circle cx="496" cy="306"/><circle cx="506" cy="306"/><circle cx="516" cy="306"/><circle cx="526" cy="306"/><circle cx="536" cy="306"/><circle cx="546" cy="306"/><circle cx="556" cy="306"/><circle cx="566" cy="306"/><circle cx="576" cy="306"/><circle cx="586" cy="306"/><circle cx="596" cy="306"/><circle cx="816" cy="306"/><circle cx="826" cy="306"/><circle cx="846" cy="306"/><circle cx="856" cy="306"/><circle cx="866" cy="306"/><circle cx="886" cy="306"/><circle cx="926" cy="306"/><circle cx="946" cy="306"/><circle cx="166" cy="316"/><circle cx="176" cy="316"/><circle cx="186" cy="316"/><circle cx="196" cy="316"/><circle cx="206" cy="316"/><circle cx="216" cy="316"/><circle cx="226" cy="316"/><circle cx="236" cy="316"/><circle cx="246" cy="316"/><circle cx="256" cy="316"/><circle cx="266" cy="316"/><circle cx="276" cy="316"/><circle cx="286" cy="316"/><circle cx="296" cy="316"/><circle cx="306" cy="316"/><circle cx="316" cy="316"/><circle cx="496" cy="316"/><circle cx="506" cy="316"/><circle cx="516" cy="316"/><circle cx="526" cy="316"/><circle cx="536" cy="316"/><circle cx="546" cy="316"/><circle cx="556" cy="316"/><circle cx="566" cy="316"/><circle cx="576" cy="316"/><circle cx="586" cy="316"/><circle cx="826" cy="316"/><circle cx="886" cy="316"/><circle cx="946" cy="316"/><circle cx="956" cy="316"/><circle cx="966" cy="316"/><circle cx="176" cy="326"/><circle cx="186" cy="326"/><circle cx="196" cy="326"/><circle cx="206" cy="326"/><circle cx="216" cy="326"/><circle cx="226" cy="326"/><circle cx="236" cy="326"/><circle cx="246" cy="326"/><circle cx="256" cy="326"/><circle cx="266" cy="326"/><circle cx="276" cy="326"/><circle cx="286" cy="326"/><circle cx="296" cy="326"/><circle cx="306" cy="326"/><circle cx="316" cy="326"/><circle cx="506" cy="326"/><circle cx="516" cy="326"/><circle cx="526" cy="326"/><circle cx="536" cy="326"/><circle cx="546" cy="326"/><circle cx="556" cy="326"/><circle cx="566" cy="326"/><circle cx="576" cy="326"/><circle cx="586" cy="326"/><circle cx="836" cy="326"/><circle cx="846" cy="326"/><circle cx="946" cy="326"/><circle cx="956" cy="326"/><circle cx="966" cy="326"/><circle cx="1006" cy="326"/><circle cx="176" cy="336"/><circle cx="186" cy="336"/><circle cx="196" cy="336"/><circle cx="206" cy="336"/><circle cx="216" cy="336"/><circle cx="226" cy="336"/><circle cx="236" cy="336"/><circle cx="246" cy="336"/><circle cx="256" cy="336"/><circle cx="266" cy="336"/><circle cx="276" cy="336"/><circle cx="286" cy="336"/><circle cx="296" cy="336"/><circle cx="306" cy="336"/><circle cx="316" cy="336"/><circle cx="506" cy="336"/><circle cx="516" cy="336"/><circle cx="526" cy="336"/><circle cx="536" cy="336"/><circle cx="546" cy="336"/><circle cx="556" cy="336"/><circle cx="566" cy="336"/><circle cx="576" cy="336"/><circle cx="586" cy="336"/><circle cx="976" cy="336"/><circle cx="186" cy="346"/><circle cx="196" cy="346"/><circle cx="206" cy="346"/><circle cx="216" cy="346"/><circle cx="226" cy="346"/><circle cx="236" cy="346"/><circle cx="246" cy="346"/><circle cx="256" cy="346"/><circle cx="266" cy="346"/><circle cx="276" cy="346"/><circle cx="286" cy="346"/><circle cx="296" cy="346"/><circle cx="306" cy="346"/><circle cx="496" cy="346"/><circle cx="506" cy="346"/><circle cx="516" cy="346"/><circle cx="526" cy="346"/><circle cx="536" cy="346"/><circle cx="546" cy="346"/><circle cx="556" cy="346"/><circle cx="566" cy="346"/><circle cx="576" cy="346"/><circle cx="586" cy="346"/><circle cx="626" cy="346"/><circle cx="926" cy="346"/><circle cx="956" cy="346"/><circle cx="196" cy="356"/><circle cx="206" cy="356"/><circle cx="216" cy="356"/><circle cx="226" cy="356"/><circle cx="236" cy="356"/><circle cx="246" cy="356"/><circle cx="256" cy="356"/><circle cx="266" cy="356"/><circle cx="276" cy="356"/><circle cx="286" cy="356"/><circle cx="296" cy="356"/><circle cx="306" cy="356"/><circle cx="496" cy="356"/><circle cx="506" cy="356"/><circle cx="516" cy="356"/><circle cx="526" cy="356"/><circle cx="536" cy="356"/><circle cx="546" cy="356"/><circle cx="556" cy="356"/><circle cx="566" cy="356"/><circle cx="576" cy="356"/><circle cx="586" cy="356"/><circle cx="616" cy="356"/><circle cx="626" cy="356"/><circle cx="896" cy="356"/><circle cx="916" cy="356"/><circle cx="926" cy="356"/><circle cx="956" cy="356"/><circle cx="206" cy="366"/><circle cx="216" cy="366"/><circle cx="226" cy="366"/><circle cx="236" cy="366"/><circle cx="246" cy="366"/><circle cx="256" cy="366"/><circle cx="266" cy="366"/><circle cx="276" cy="366"/><circle cx="286" cy="366"/><circle cx="296" cy="366"/><circle cx="306" cy="366"/><circle cx="496" cy="366"/><circle cx="506" cy="366"/><circle cx="516" cy="366"/><circle cx="526" cy="366"/><circle cx="536" cy="366"/><circle cx="546" cy="366"/><circle cx="556" cy="366"/><circle cx="566" cy="366"/><circle cx="576" cy="366"/><circle cx="616" cy="366"/><circle cx="886" cy="366"/><circle cx="896" cy="366"/><circle cx="906" cy="366"/><circle cx="916" cy="366"/><circle cx="926" cy="366"/><circle cx="936" cy="366"/><circle cx="956" cy="366"/><circle cx="206" cy="376"/><circle cx="216" cy="376"/><circle cx="226" cy="376"/><circle cx="236" cy="376"/><circle cx="246" cy="376"/><circle cx="256" cy="376"/><circle cx="266" cy="376"/><circle cx="276" cy="376"/><circle cx="286" cy="376"/><circle cx="296" cy="376"/><circle cx="306" cy="376"/><circle cx="506" cy="376"/><circle cx="516" cy="376"/><circle cx="526" cy="376"/><circle cx="536" cy="376"/><circle cx="546" cy="376"/><circle cx="556" cy="376"/><circle cx="566" cy="376"/><circle cx="606" cy="376"/><circle cx="616" cy="376"/><circle cx="876" cy="376"/><circle cx="886" cy="376"/><circle cx="896" cy="376"/><circle cx="906" cy="376"/><circle cx="916" cy="376"/><circle cx="926" cy="376"/><circle cx="936" cy="376"/><circle cx="946" cy="376"/><circle cx="956" cy="376"/><circle cx="206" cy="386"/><circle cx="216" cy="386"/><circle cx="226" cy="386"/><circle cx="236" cy="386"/><circle cx="246" cy="386"/><circle cx="256" cy="386"/><circle cx="266" cy="386"/><circle cx="276" cy="386"/><circle cx="286" cy="386"/><circle cx="506" cy="386"/><circle cx="516" cy="386"/><circle cx="526" cy="386"/><circle cx="536" cy="386"/><circle cx="546" cy="386"/><circle cx="556" cy="386"/><circle cx="566" cy="386"/><circle cx="606" cy="386"/><circle cx="846" cy="386"/><circle cx="856" cy="386"/><circle cx="866" cy="386"/><circle cx="876" cy="386"/><circle cx="886" cy="386"/><circle cx="896" cy="386"/><circle cx="906" cy="386"/><circle cx="916" cy="386"/><circle cx="926" cy="386"/><circle cx="936" cy="386"/><circle cx="946" cy="386"/><circle cx="956" cy="386"/><circle cx="966" cy="386"/><circle cx="216" cy="396"/><circle cx="226" cy="396"/><circle cx="236" cy="396"/><circle cx="246" cy="396"/><circle cx="256" cy="396"/><circle cx="266" cy="396"/><circle cx="276" cy="396"/><circle cx="506" cy="396"/><circle cx="516" cy="396"/><circle cx="526" cy="396"/><circle cx="536" cy="396"/><circle cx="546" cy="396"/><circle cx="556" cy="396"/><circle cx="846" cy="396"/><circle cx="856" cy="396"/><circle cx="866" cy="396"/><circle cx="876" cy="396"/><circle cx="886" cy="396"/><circle cx="896" cy="396"/><circle cx="906" cy="396"/><circle cx="916" cy="396"/><circle cx="926" cy="396"/><circle cx="936" cy="396"/><circle cx="946" cy="396"/><circle cx="956" cy="396"/><circle cx="966" cy="396"/><circle cx="216" cy="406"/><circle cx="226" cy="406"/><circle cx="236" cy="406"/><circle cx="246" cy="406"/><circle cx="256" cy="406"/><circle cx="266" cy="406"/><circle cx="276" cy="406"/><circle cx="516" cy="406"/><circle cx="526" cy="406"/><circle cx="536" cy="406"/><circle cx="546" cy="406"/><circle cx="846" cy="406"/><circle cx="856" cy="406"/><circle cx="866" cy="406"/><circle cx="876" cy="406"/><circle cx="886" cy="406"/><circle cx="896" cy="406"/><circle cx="906" cy="406"/><circle cx="916" cy="406"/><circle cx="926" cy="406"/><circle cx="936" cy="406"/><circle cx="946" cy="406"/><circle cx="956" cy="406"/><circle cx="966" cy="406"/><circle cx="216" cy="416"/><circle cx="226" cy="416"/><circle cx="236" cy="416"/><circle cx="246" cy="416"/><circle cx="256" cy="416"/><circle cx="266" cy="416"/><circle cx="516" cy="416"/><circle cx="526" cy="416"/><circle cx="536" cy="416"/><circle cx="846" cy="416"/><circle cx="856" cy="416"/><circle cx="866" cy="416"/><circle cx="876" cy="416"/><circle cx="886" cy="416"/><circle cx="896" cy="416"/><circle cx="906" cy="416"/><circle cx="916" cy="416"/><circle cx="926" cy="416"/><circle cx="936" cy="416"/><circle cx="946" cy="416"/><circle cx="956" cy="416"/><circle cx="966" cy="416"/><circle cx="216" cy="426"/><circle cx="226" cy="426"/><circle cx="236" cy="426"/><circle cx="246" cy="426"/><circle cx="256" cy="426"/><circle cx="846" cy="426"/><circle cx="856" cy="426"/><circle cx="866" cy="426"/><circle cx="906" cy="426"/><circle cx="916" cy="426"/><circle cx="926" cy="426"/><circle cx="936" cy="426"/><circle cx="946" cy="426"/><circle cx="956" cy="426"/><circle cx="216" cy="436"/><circle cx="226" cy="436"/><circle cx="236" cy="436"/><circle cx="246" cy="436"/><circle cx="256" cy="436"/><circle cx="916" cy="436"/><circle cx="926" cy="436"/><circle cx="936" cy="436"/><circle cx="946" cy="436"/><circle cx="216" cy="446"/><circle cx="226" cy="446"/><circle cx="236" cy="446"/><circle cx="246" cy="446"/><circle cx="916" cy="446"/><circle cx="926" cy="446"/><circle cx="936" cy="446"/><circle cx="226" cy="456"/><circle cx="236" cy="456"/><circle cx="1016" cy="456"/><circle cx="216" cy="466"/><circle cx="226" cy="466"/><circle cx="236" cy="466"/><circle cx="916" cy="466"/><circle cx="1016" cy="466"/><circle cx="216" cy="476"/><circle cx="226" cy="476"/><circle cx="236" cy="476"/><circle cx="996" cy="476"/><circle cx="226" cy="486"/><circle cx="236" cy="486"/><circle cx="266" cy="486"/><circle cx="976" cy="486"/><circle cx="236" cy="496"/><circle cx="246" cy="496"/></g>
</svg>
